<svg xmlns="http://www.w3.org/2000/svg" width="300" height="250.536" viewBox="0 0 300 250.536"><defs><style>.a{fill:#2f2e41;}.b{fill:#2c6561;}.c{fill:#f2f2f2;}.d{fill:#3f3d56;}.e{fill:#a0616a;}.f{opacity:0.1;}</style></defs><path class="a" d="M188.472,755.151c4.163,7.72,13,11.034,13,11.034s2.086-9.2-2.077-16.923-13-11.035-13-11.035S184.31,747.431,188.472,755.151Z" transform="translate(-174.527 -516.417)"/><path class="b" d="M168.807,774.884c7.516,4.522,10.41,13.5,10.41,13.5s-9.291,1.65-16.807-2.872S152,772.013,152,772.013,161.291,770.363,168.807,774.884Z" transform="translate(-152 -538.69)"/><rect class="c" width="46.894" height="0.67" transform="translate(138.419 12.027)"/><rect class="c" width="0.67" height="6.197" transform="translate(171.914 12.53)"/><rect class="c" width="0.67" height="6.197" transform="translate(151.482 12.53)"/><rect class="c" width="46.894" height="0.67" transform="translate(162.201 44.183)"/><rect class="c" width="0.67" height="6.197" transform="translate(174.929 38.154)"/><rect class="c" width="0.67" height="6.197" transform="translate(195.361 38.154)"/><rect class="c" width="46.894" height="0.67" transform="translate(224.502 59.256)"/><rect class="c" width="0.67" height="6.197" transform="translate(237.23 53.227)"/><rect class="c" width="0.67" height="6.197" transform="translate(257.663 53.227)"/><rect class="c" width="46.894" height="0.67" transform="translate(219.813 214.675)"/><rect class="c" width="0.67" height="6.197" transform="translate(232.541 208.645)"/><rect class="c" width="0.67" height="6.197" transform="translate(252.973 208.645)"/><rect class="c" width="46.894" height="0.67" transform="translate(139.759 107.154)"/><rect class="c" width="0.67" height="6.197" transform="translate(152.487 101.125)"/><rect class="c" width="0.67" height="6.197" transform="translate(172.919 101.125)"/><rect class="c" width="46.894" height="0.67" transform="translate(154.497 187.878)"/><rect class="c" width="0.67" height="6.197" transform="translate(167.225 181.849)"/><rect class="c" width="0.67" height="6.197" transform="translate(187.657 181.849)"/><rect class="c" width="46.894" height="0.67" transform="translate(229.526 163.427)"/><rect class="c" width="0.67" height="6.197" transform="translate(242.255 157.397)"/><rect class="c" width="0.67" height="6.197" transform="translate(262.687 157.397)"/><path class="a" d="M204.586,631.132H125.274v-.57h78.742V602.888H131.942l-3.5-7.294.514-.247,3.346,6.97h72.286Z" transform="translate(-83.313 -395.933)"/><circle class="d" cx="5.991" cy="5.991" r="5.991" transform="translate(46.526 237.196)"/><circle class="d" cx="5.991" cy="5.991" r="5.991" transform="translate(105.582 237.196)"/><circle class="d" cx="3.709" cy="3.709" r="3.709" transform="translate(177.477 112.236)"/><path class="a" d="M324.085,540.581H234.938l-19.29-63.05h128.3l-.117.371Zm-88.725-.571h88.307l19.506-61.91H216.419Z" transform="translate(-194.329 -343.041)"/><path class="c" d="M177.5,468.933H99.2L82.26,413.015H194.952l-.1.329Z" transform="translate(-54.707 -274.674)"/><path class="a" d="M450.37,356.232l-.552-.146,3.765-14.192h21.9v.571H454.022Z" transform="translate(-299.15 -227.375)"/><rect class="a" width="115.657" height="0.571" transform="translate(27.553 153.604)"/><rect class="a" width="102.603" height="0.571" transform="translate(33.984 174.626)"/><rect class="a" width="0.571" height="62.48" transform="translate(85.183 134.775)"/><rect class="a" width="62.613" height="0.571" transform="matrix(0.065, -0.998, 0.998, 0.065, 107.205, 197.236)"/><rect class="a" width="0.571" height="62.613" transform="translate(59.079 134.793) rotate(-3.729)"/><rect class="a" width="299.881" height="1.19" transform="translate(0.119 249.046)"/><path class="e" d="M747.411,136s4.9,13.936,1.883,16.08,10.169,19.654,10.169,19.654l15.819-4.288-8.663-14.651s-1.13-14.651-1.13-16.795S747.411,136,747.411,136Z" transform="translate(-547.976 -115.273)"/><path class="f" d="M747.411,136s4.9,13.936,1.883,16.08,10.169,19.654,10.169,19.654l15.819-4.288-8.663-14.651s-1.13-14.651-1.13-16.795S747.411,136,747.411,136Z" transform="translate(-547.976 -115.273)"/><path class="a" d="M721.613,413.54s-1.429,17.867,0,27.158,3.573,35.019,3.573,35.019,0,48.6,7.861,49.313,13.579,1.429,14.294-1.429-3.573-4.288-1.429-5.717,2.859-6.432,0-12.15,0-63.606,0-63.606l13.579,36.448s1.429,30.016,2.859,34.3-1.429,12.15,3.573,12.864,10.72-3.573,13.579-5-4.288-1.429-2.859-2.144,5.717-2.859,4.288-3.573S778.072,480,778.072,480s-3.931-73.254-8.934-76.113-8.219,2.065-8.219,2.065Z" transform="translate(-530.396 -293.475)"/><path class="a" d="M755.6,758.784V764.5s-6.432,15.542,0,15.542,11.435,1.611,11.435-.533v-19.3Z" transform="translate(-551.523 -530.088)"/><path class="a" d="M864.461,758.754v5.717s6.432,15.542,0,15.542-11.435,1.611-11.435-.533v-19.3Z" transform="translate(-618.215 -530.068)"/><circle class="e" cx="12.864" cy="12.864" r="12.864" transform="translate(196.576 5.36)"/><path class="b" d="M762.709,201.9s3.573,10.72,9.291,8.576l5.717-2.144,10.005,68.609s-7.861,11.435-19.3,4.288S762.709,201.9,762.709,201.9Z" transform="translate(-557.199 -159.734)"/><path class="d" d="M795.418,182.019l3.216-6.789s18.939,8.933,21.8,11.792a11.161,11.161,0,0,1,2.859,7.147l-5,17.867s1.429,39.307,1.429,40.736,5,9.291,1.429,6.432-4.288-5.717-7.147-1.429-9.291,9.291-9.291,9.291Z" transform="translate(-579.903 -141.997)"/><path class="e" d="M845.15,349.122l-2.144,20.011S830.142,380.568,833,381.282s4.288-2.144,4.288-2.144,5,5,7.861,2.144,10.005-30.016,10.005-30.016Z" transform="translate(-604.621 -257.643)"/><path class="a" d="M748.468,76.058c-2.852-.1-5.9-.152-8.308,1.384a12.162,12.162,0,0,0-2.871,2.811c-2.342,2.96-4.365,6.685-3.5,10.359l1.01-.394a6.615,6.615,0,0,1-.638,2.834c.142-.413.619.255.491.674l-1.113,3.651a3.438,3.438,0,0,1,4.384,2.616c.127-4.241.567-9.1,4.007-11.587a13.862,13.862,0,0,1,6.043-1.974,12.156,12.156,0,0,1,5.859.03c1.867.642,3.456,2.551,3.033,4.479a2,2,0,0,1,2.249,1.108,5.82,5.82,0,0,1,.461,2.665c.918.648,1.962-.639,2.336-1.7.878-2.487,1.658-5.134,1.185-7.728s-2.587-5.074-5.224-5.083a1.831,1.831,0,0,0,.476-1.289l-2.174-.184a2.4,2.4,0,0,0,1.435-.757C756.74,78.934,749.879,76.108,748.468,76.058Z" transform="translate(-538.753 -76.014)"/><path class="d" d="M717.994,178.441s-5.818-5.7-7.912-5.352-4.953,5.352-4.953,5.352-17.152,5.717-16.438,11.435,8.576,33.59,8.576,33.59,6.432,33.59.715,37.163,27.158,12.864,27.872,8.576,2.144-47.169,0-53.6S717.994,178.441,717.994,178.441Z" transform="translate(-508.91 -140.563)"/><path class="d" d="M850.893,223.236h8.837s6.171,27.158,6.886,30.017,2.144,16.438,1.429,16.438-15.008-2.859-15.008-.715Z" transform="translate(-616.796 -173.923)"/><path class="c" d="M777.707,336.893h-33.83c-3.3-15.187-3.577-29.86,0-43.879h33.83C772.247,306.781,771.906,321.353,777.707,336.893Z" transform="translate(-543.909 -220.329)"/><path class="e" d="M707.938,355.728l10.005,4.288s19.3,2.859,19.3-5-19.3-3.573-19.3-3.573l-6.432-2.057Z" transform="translate(-521.724 -257.817)"/><path class="d" d="M683.274,210.435l-8.576,2.144-6.432,37.878s-2.144,10.005,1.429,10.72,13.579,6.432,13.579,6.432,1.429-10.72,4.288-10.72l-7.147-5.717,4.288-25.014Z" transform="translate(-494.916 -165.41)"/><rect class="c" width="46.894" height="0.67" transform="translate(20.18 118.208)"/><rect class="c" width="0.67" height="6.197" transform="translate(32.909 112.179)"/><rect class="c" width="0.67" height="6.197" transform="translate(53.341 112.179)"/><rect class="c" width="46.894" height="0.67" transform="translate(36.593 19.062)"/><rect class="c" width="0.67" height="6.197" transform="translate(70.089 19.564)"/><rect class="c" width="0.67" height="6.197" transform="translate(49.657 19.564)"/><rect class="c" width="46.894" height="0.67" transform="translate(83.822 85.047)"/><rect class="c" width="0.67" height="6.197" transform="translate(117.317 85.55)"/><rect class="c" width="0.67" height="6.197" transform="translate(96.885 85.55)"/><rect class="c" width="46.894" height="0.67" transform="translate(4.103 84.713)"/><rect class="c" width="0.67" height="6.197" transform="translate(37.598 85.215)"/><rect class="c" width="0.67" height="6.197" transform="translate(17.166 85.215)"/><rect class="c" width="46.894" height="0.67" transform="translate(60.375 51.217)"/><rect class="c" width="0.67" height="6.197" transform="translate(73.103 45.188)"/><rect class="c" width="0.67" height="6.197" transform="translate(93.535 45.188)"/></svg>